<svg width="85" height="22" viewBox="0 0 85 22" fill="none" xmlns="http://www.w3.org/2000/svg">
<path d="M10.9409 21.252C8.86894 21.252 7.05827 20.832 5.50894 19.992C3.97827 19.1333 2.79294 17.9293 1.95294 16.38C1.1316 14.8307 0.720938 13.0387 0.720938 11.004C0.720938 8.988 1.1316 7.21467 1.95294 5.684C2.79294 4.13467 3.97827 2.94 5.50894 2.1C7.05827 1.24133 8.86894 0.812 10.9409 0.812C12.2476 0.812 13.5076 1.008 14.7209 1.4C15.9529 1.792 16.9423 2.324 17.6889 2.996L16.0929 6.72C14.4689 5.544 12.7889 4.956 11.0529 4.956C9.4476 4.956 8.2156 5.46933 7.35694 6.496C6.49827 7.504 6.06894 9.00667 6.06894 11.004C6.06894 13.02 6.49827 14.5413 7.35694 15.568C8.2156 16.5947 9.4476 17.108 11.0529 17.108C12.7889 17.108 14.4689 16.52 16.0929 15.344L17.6889 19.068C16.9423 19.74 15.9529 20.272 14.7209 20.664C13.5076 21.056 12.2476 21.252 10.9409 21.252ZM27.0355 21.224C25.4488 21.224 24.0675 20.9253 22.8915 20.328C21.7155 19.7307 20.8101 18.872 20.1755 17.752C19.5408 16.632 19.2235 15.316 19.2235 13.804C19.2235 12.292 19.5408 10.976 20.1755 9.856C20.8101 8.736 21.7155 7.87733 22.8915 7.28C24.0675 6.68267 25.4488 6.384 27.0355 6.384C28.6035 6.384 29.9661 6.692 31.1235 7.308C32.2995 7.90533 33.2048 8.764 33.8395 9.884C34.4741 10.9853 34.7915 12.292 34.7915 13.804C34.7915 15.316 34.4741 16.632 33.8395 17.752C33.2048 18.8533 32.2995 19.712 31.1235 20.328C29.9661 20.9253 28.6035 21.224 27.0355 21.224ZM27.0355 17.444C28.8648 17.444 29.7795 16.2307 29.7795 13.804C29.7795 12.572 29.5461 11.6667 29.0795 11.088C28.6315 10.4907 27.9501 10.192 27.0355 10.192C26.1021 10.192 25.4021 10.4907 24.9355 11.088C24.4688 11.6667 24.2355 12.572 24.2355 13.804C24.2355 15.0547 24.4688 15.9787 24.9355 16.576C25.4021 17.1547 26.1021 17.444 27.0355 17.444ZM52.1561 6.776V21H47.1721V19.068C46.7614 19.74 46.1641 20.272 45.3801 20.664C44.5961 21.0373 43.7374 21.224 42.8041 21.224C41.5907 21.224 40.5081 20.9253 39.5561 20.328C38.6041 19.7307 37.8574 18.8813 37.3161 17.78C36.7934 16.66 36.5321 15.372 36.5321 13.916C36.5321 12.4413 36.8027 11.1347 37.3441 9.996C37.8854 8.85733 38.6321 7.97067 39.5841 7.336C40.5361 6.70133 41.6094 6.384 42.8041 6.384C43.7374 6.384 44.5867 6.58933 45.3521 7C46.1361 7.392 46.7427 7.924 47.1721 8.596V6.776H52.1561ZM44.3721 17.444C45.2681 17.444 45.9587 17.136 46.4441 16.52C46.9294 15.904 47.1721 15.0173 47.1721 13.86C47.1721 12.684 46.9294 11.788 46.4441 11.172C45.9587 10.5373 45.2681 10.22 44.3721 10.22C43.4947 10.22 42.8041 10.5467 42.3001 11.2C41.7961 11.8347 41.5441 12.74 41.5441 13.916C41.5441 15.0547 41.7867 15.932 42.2721 16.548C42.7574 17.1453 43.4574 17.444 44.3721 17.444ZM62.2243 21.224C59.8163 21.224 57.9309 20.5707 56.5683 19.264C55.2056 17.9573 54.5243 16.1747 54.5243 13.916C54.5243 12.4227 54.8509 11.1067 55.5042 9.968C56.1763 8.82933 57.1096 7.952 58.3043 7.336C59.4989 6.70133 60.8803 6.384 62.4483 6.384C63.4936 6.384 64.5203 6.54267 65.5283 6.86C66.5363 7.15867 67.3389 7.56933 67.9363 8.092L66.6483 11.592C66.1443 11.1813 65.5563 10.8547 64.8843 10.612C64.2123 10.3693 63.5683 10.248 62.9523 10.248C61.9069 10.248 61.1043 10.5467 60.5443 11.144C59.9843 11.7413 59.7043 12.628 59.7043 13.804C59.7043 14.9987 59.9843 15.904 60.5443 16.52C61.1043 17.1173 61.9163 17.416 62.9803 17.416C63.5963 17.416 64.2309 17.2947 64.8843 17.052C65.5563 16.8093 66.1443 16.4827 66.6483 16.072L67.9363 19.516C67.3203 20.0573 66.4989 20.4773 65.4723 20.776C64.4643 21.0747 63.3816 21.224 62.2243 21.224ZM79.0984 6.384C80.7784 6.384 82.0291 6.89733 82.8504 7.924C83.6904 8.932 84.1104 10.4627 84.1104 12.516V21H79.0424V12.74C79.0424 11.8627 78.8931 11.2373 78.5944 10.864C78.2957 10.472 77.8291 10.276 77.1944 10.276C76.4291 10.276 75.8131 10.5373 75.3464 11.06C74.8797 11.564 74.6464 12.236 74.6464 13.076V21H69.5784V0.391998H74.6464V8.512C75.7477 7.09333 77.2317 6.384 79.0984 6.384Z" fill="white"/>
</svg>
